<svg width="620" height="520" viewBox="0 0 620 520" fill="none" xmlns="http://www.w3.org/2000/svg">
  <defs>
    <linearGradient id="bg" x1="80" y1="40" x2="540" y2="500" gradientUnits="userSpaceOnUse">
      <stop stop-color="#7C3AED"/>
      <stop offset="1" stop-color="#4C1D95"/>
    </linearGradient>
    <linearGradient id="shirt" x1="238" y1="250" x2="390" y2="360" gradientUnits="userSpaceOnUse">
      <stop stop-color="#1D4ED8"/>
      <stop offset="1" stop-color="#2563EB"/>
    </linearGradient>
  </defs>

  <rect x="60" y="30" width="500" height="460" rx="48" fill="url(#bg)" opacity="0.95"/>
  <ellipse cx="315" cy="280" rx="170" ry="185" fill="#8B5CF6" opacity="0.42"/>
  <rect x="370" y="88" width="74" height="66" rx="20" transform="rotate(12 370 88)" fill="#F43F5E"/>
  <rect x="168" y="126" width="64" height="54" rx="12" transform="rotate(12 168 126)" fill="#BAE6FD"/>
  <path d="M180 286L194 312L224 316L200 336L206 366L180 350L154 366L160 336L136 316L166 312L180 286Z" fill="#FACC15"/>

  <ellipse cx="307" cy="206" rx="64" ry="66" fill="#F3D3B4"/>
  <path d="M227 190C230 140 268 114 311 114C354 114 391 140 392 194C371 176 342 168 308 168C274 168 248 174 227 190Z" fill="#111827"/>

  <rect x="220" y="252" width="176" height="138" rx="40" fill="url(#shirt)"/>
  <rect x="258" y="286" width="100" height="66" rx="12" fill="#E5E7EB"/>
  <circle cx="307" cy="317" r="16" fill="#FCD34D"/>
  <path d="M307 300L311 312H324L313 319L317 331L307 324L297 331L301 319L290 312H303L307 300Z" fill="#DC2626"/>

  <rect x="184" y="286" width="52" height="22" rx="11" transform="rotate(-24 184 286)" fill="#F3D3B4"/>
  <rect x="383" y="286" width="52" height="22" rx="11" transform="rotate(20 383 286)" fill="#F3D3B4"/>

  <path d="M246 390C262 410 268 440 262 468H220C221 440 227 412 246 390Z" fill="#111827"/>
  <path d="M364 390C381 412 387 442 382 468H340C340 440 347 411 364 390Z" fill="#111827"/>
  <path d="M216 468H272L262 496H206L216 468Z" fill="#F43F5E"/>
  <path d="M336 468H392L382 496H326L336 468Z" fill="#F43F5E"/>
</svg>
